{"title":"Rake.S04E07.WEB-DL.AAC2.0.H264-BTN","uid":15173950,"size":672235417,"categoryP":"video","categoryS":"hd___tv_shows","magnet":"?xt=urn:btih:2e5e7da75daf955f17ae6e77d8efdab605e29262&amp;dn=Rake.S04E07.WEB-DL.AAC2.0.H264-BTN&amp;tr=udp%3A%2F%2Ftracker.leechers-paradise.org%3A6969&amp;tr=udp%3A%2F%2Fzer0day.ch%3A1337&amp;tr=udp%3A%2F%2Fopen.demonii.com%3A1337&amp;tr=udp%3A%2F%2Ftracker.coppersurfer.tk%3A6969&amp;tr=udp%3A%2F%2Fexodus.desync.com%3A6969","seeders":0,"leechers":1,"uploader":null,"files":2,"time":1467407887,"description":"Video\r\nID                                       : 1\r\nFormat                                   : AVC\r\nFormat/Info                              : Advanced Video Codec\r\nFormat profile                           :   \r\nFormat settings, CABAC                   : Yes\r\nFormat settings, ReFrames                : 2 frames\r\nCodec ID                                 : avc1\r\nCodec ID/Info                            : Advanced Video Coding\r\nDuration                                 : 56mn 26s\r\nBit rate mode                            : Variable\r\nBit rate                                 : 1 460 Kbps\r\nMaximum bit rate                         : 768 Kbps\r\nWidth                                    : 720 pixels\r\nHeight                                   : 480 pixels\r\nDisplay aspect ratio                     : 16:9\r\nOriginal display aspect ratio            : 16:9\r\nFrame rate mode                          : Variable\r\nFrame rate                               : 25.000 fps\r\nMinimum frame rate                       : 12.510 fps\r\nMaximum frame rate                       : 16 000.000 fps\r\nColor space                              : YUV\r\nChroma subsampling                       : 4:2:0\r\nBit depth                                : 8 bits\r\nScan type                                : Progressive\r\nBits/(Pixel*Frame)                       : 0.169\r\nStream size                              : 589 MiB (92%)\r\nLanguage                                 : English\r\nEncoded date                             : UTC 1904-01-01 00:00:00\r\nTagged date                              : UTC 1904-01-01 00:00:00\r\n\r\nAudio\r\nID                                       : 2\r\nFormat                                   : AAC\r\nFormat/Info                              : Advanced Audio Codec\r\nFormat profile                           : LC\r\nCodec ID                                 : 40\r\nDuration                                 : 56mn 26s\r\nBit rate mode                            : Constant\r\nBit rate                                 : 120 Kbps\r\nChannel(s)                               : 2 channels\r\nChannel positions                        : Front: L R\r\nSampling rate                            : 44.1 KHz\r\nFrame rate                               : 43.066 fps (1024 spf)\r\nCompression mode                         : Lossy\r\nStream size                              : 48.5 MiB (8%)\r\nLanguage                                 : English\r\nDefault                                  : Yes\r\nAlternate group                          : 1\r\nEncoded date                             : UTC 1904-01-01 00:00:00\r\nTagged date                              : UTC 1904-01-01 00:00:00","torrent":{"xt":"urn:btih:2e5e7da75daf955f17ae6e77d8efdab605e29262","amp;dn":"Rake.S04E07.WEB-DL.AAC2.0.H264-BTN","amp;tr":["udp%3A%2F%2Ftracker.leechers-paradise.org%3A6969","udp%3A%2F%2Fzer0day.ch%3A1337","udp%3A%2F%2Fopen.demonii.com%3A1337","udp%3A%2F%2Ftracker.coppersurfer.tk%3A6969","udp%3A%2F%2Fexodus.desync.com%3A6969"],"infoHash":"2e5e7da75daf955f17ae6e77d8efdab605e29262","infoHashBuffer":{"type":"Buffer","data":[46,94,125,167,93,175,149,95,23,174,110,119,216,239,218,182,5,226,146,98]},"announce":[],"urlList":[]}}